<?xml version="1.0" standalone="no"?>
<!DOCTYPE svg PUBLIC "-//W3C//DTD SVG 20010904//EN"
 "http://www.w3.org/TR/2001/REC-SVG-20010904/DTD/svg10.dtd">
<svg version="1.0" xmlns="http://www.w3.org/2000/svg"
 width="442.000000pt" height="106.000000pt" viewBox="0 0 442.000000 106.000000"
 preserveAspectRatio="xMidYMid meet">

<g transform="translate(0.000000,106.000000) scale(0.100000,-0.100000)"
fill="#000000" stroke="none">
<path d="M195 960 c-15 -25 -16 -137 -1 -179 l16 -43 -38 7 c-20 3 -47 13 -59
21 -32 20 -36 4 -23 -77 14 -84 54 -148 123 -199 l47 -35 -36 -3 -37 -3 7 -78
c15 -179 94 -333 169 -330 30 2 30 2 5 6 -68 10 -141 158 -155 311 l-6 72 69
1 c38 1 80 4 94 8 22 7 21 8 -17 14 -138 23 -235 118 -250 249 -6 47 -5 50 13
40 11 -6 54 -15 97 -21 105 -15 137 -32 137 -74 0 -17 4 -49 9 -69 10 -45 5
-47 -28 -12 -14 14 -55 41 -92 60 -37 18 -74 43 -82 54 -8 12 -17 17 -21 12
-11 -18 26 -51 92 -82 37 -18 88 -52 113 -76 48 -47 57 -43 39 21 -23 77 -21
136 5 210 6 19 6 19 -8 2 -15 -18 -16 -18 -30 10 -15 29 -95 99 -103 90 -3 -2
15 -22 40 -44 69 -61 85 -129 25 -104 -13 5 -37 12 -52 16 -20 4 -33 16 -43
40 -14 35 -18 112 -8 151 5 20 5 20 77 -4 40 -13 81 -31 91 -40 18 -16 18 -16
8 4 -7 13 -42 33 -90 53 -88 35 -88 35 -97 21z"/>
<path d="M1280 730 c-19 -11 -29 -19 -22 -20 8 0 12 -18 12 -55 0 -50 -2 -55
-22 -55 l-22 0 22 -16 c20 -14 22 -23 22 -115 0 -72 -3 -99 -12 -100 -7 -1 1
-5 17 -9 64 -16 60 -29 57 190 -1 110 -6 200 -10 200 -4 -1 -23 -9 -42 -20z"/>
<path d="M2775 729 c-22 -10 -34 -19 -27 -19 9 0 12 -43 12 -180 l0 -180 41 0
c30 0 38 3 32 13 -4 6 -10 96 -13 198 l-5 185 -40 -17z"/>
<path d="M2066 704 c-22 -21 -3 -56 27 -52 37 5 33 67 -5 68 -4 0 -14 -7 -22
-16z"/>
<path d="M1561 574 c45 -50 61 -130 39 -190 -10 -26 -10 -26 12 -12 36 23 60
80 52 124 -9 48 -50 92 -94 100 l-35 7 26 -29z"/>
<path d="M1728 475 l3 -125 32 0 32 0 -2 107 c-1 60 -3 116 -3 126 0 13 -8 17
-32 17 l-33 0 3 -125z"/>
<path d="M1855 589 c-19 -9 -19 -9 2 -5 12 2 31 -3 42 -11 19 -13 21 -24 21
-119 l0 -104 33 0 32 0 -3 83 c-4 114 -10 145 -32 157 -23 12 -68 12 -95 -1z"/>
<path d="M2048 593 c9 -3 12 -38 12 -124 l0 -119 36 0 c29 0 35 3 30 16 -3 9
-6 65 -6 125 l0 109 -42 -1 c-24 0 -37 -3 -30 -6z"/>
<path d="M2254 581 c-46 -28 -64 -59 -64 -112 0 -84 73 -133 168 -113 l37 7
-43 7 c-64 10 -94 45 -100 115 -4 47 -1 62 17 86 26 34 25 35 -15 10z"/>
<path d="M2363 583 c9 -11 17 -33 17 -49 l0 -29 22 33 c23 37 18 47 -27 58
-29 7 -30 7 -12 -13z"/>
<path d="M2480 578 c0 -19 2 -20 18 -6 9 9 24 18 32 21 8 3 0 6 -17 6 -27 1
-33 -3 -33 -21z"/>
<path d="M2581 525 c-23 -41 -58 -98 -76 -125 l-34 -50 40 0 c21 0 39 4 39 10
0 5 31 61 69 125 l69 115 -32 0 c-29 0 -36 -6 -75 -75z"/>
<path d="M2940 584 c0 -14 3 -15 18 -3 9 7 19 15 21 16 2 2 -5 3 -17 3 -14 0
-22 -6 -22 -16z"/>
<path d="M3118 584 c-80 -43 -76 -185 7 -220 55 -23 66 -18 35 16 -49 52 -60
159 -22 203 18 20 15 21 -20 1z"/>
<path d="M3223 573 c44 -47 62 -146 35 -196 -11 -21 -10 -21 13 -6 36 24 62
83 54 125 -8 47 -52 93 -95 100 l-35 7 28 -30z"/>
<path d="M3434 475 c59 -123 60 -125 74 -99 12 24 10 33 -23 111 -29 67 -34
87 -24 99 10 12 4 14 -37 14 l-49 0 59 -125z"/>
<path d="M3530 596 c0 -3 27 -60 59 -128 l59 -123 14 35 c8 19 12 37 9 40 -19
16 -63 131 -59 154 5 25 3 26 -38 26 -24 0 -44 -2 -44 -4z"/>
<path d="M3720 596 c0 -2 6 -9 14 -15 10 -9 16 -8 26 4 11 13 8 15 -14 15 -14
0 -26 -2 -26 -4z"/>
<path d="M3990 590 c8 -5 19 -23 25 -40 l11 -32 14 27 c13 25 13 28 -5 41 -10
8 -28 14 -39 14 -17 0 -18 -2 -6 -10z"/>
<path d="M4125 548 c13 -29 41 -92 63 -141 l39 -87 16 40 c8 22 12 40 8 40
-14 0 -73 153 -68 177 4 21 1 23 -39 23 l-43 0 24 -52z"/>
<path d="M4318 575 c5 -29 5 -29 21 3 10 19 9 22 -7 22 -15 0 -18 -5 -14 -25z"/>
<path d="M1124 571 c-39 -24 -58 -69 -51 -123 8 -60 42 -90 109 -95 52 -4 52
-4 23 10 -49 23 -68 52 -73 111 -3 36 1 62 12 84 19 38 20 37 -20 13z"/>
<path d="M1430 562 c-25 -25 -30 -39 -30 -77 0 -25 7 -59 15 -75 16 -31 61
-60 94 -60 17 0 17 3 -9 28 -36 37 -58 125 -41 173 15 44 8 47 -29 11z"/>
<path d="M3860 563 c-61 -54 -47 -163 25 -197 37 -18 102 -21 125 -6 11 7 6
10 -20 10 -45 0 -78 23 -96 66 -18 43 -18 88 1 124 19 38 5 38 -35 3z"/>
<path d="M2851 486 c-9 -11 0 -26 40 -75 46 -54 56 -61 88 -61 l36 0 -70 75
c-39 41 -73 75 -77 75 -3 0 -11 -6 -17 -14z"/>
<path d="M2669 384 c-7 -9 -22 -20 -34 -24 -17 -7 -15 -9 11 -9 26 -1 33 3 36
24 6 29 5 30 -13 9z"/>
<path d="M4165 272 c-25 -14 -27 -17 -11 -20 10 -2 28 5 39 17 25 24 14 25
-28 3z"/>
</g>
</svg>
